
<svg width="18px" height="10px" viewBox="0 0 18 10" version="1.1" xmlns="http://www.w3.org/2000/svg" xmlns:xlink="http://www.w3.org/1999/xlink">
    <!-- Generator: Sketch 49 (51002) - http://www.bohemiancoding.com/sketch -->
    <desc>Created with Sketch.</desc>
    <defs></defs>
    <g id="浏览器4-testnet-transaction" stroke="none" stroke-width="1" fill="none" fill-rule="evenodd">
        <g id="transactions" transform="translate(-1141.000000, -271.000000)" fill="#198CEE">
            <g transform="translate(100.000000, 198.000000)" id="1">
                <g transform="translate(0.000000, 50.000000)">
                    <g id="xiala" transform="translate(1020.000000, 0.000000)">
                        <path d="M29.998812,30.5443159 L37.2646121,23.2785158 C37.6551363,22.8879915 38.2883013,22.8879915 38.6788256,23.2785158 L38.7042323,23.3039225 C39.0947566,23.6944468 39.0947566,24.3276118 38.7042323,24.7181361 L30.8161421,32.6062263 C30.7916578,32.6373591 30.7650638,32.6673737 30.73636,32.6960775 L30.7109533,32.7214842 C30.4384855,32.9939519 30.0479048,33.0763197 29.7040253,32.9685874 C29.5521626,32.9223542 29.4091331,32.8391945 29.2890467,32.7191082 L29.26364,32.6937014 C29.2428365,32.6728979 29.2231412,32.6514059 29.2045542,32.6292987 L21.2957677,24.7205121 C20.9052434,24.3299878 20.9052434,23.6968229 21.2957677,23.3062986 L21.3211744,23.2808918 C21.7116987,22.8903675 22.3448637,22.8903675 22.7353879,23.2808918 L29.998812,30.5443159 Z" id="Combined-Shape" transform="translate(30.000000, 28.000000) scale(1, -1) translate(-30.000000, -28.000000) "></path>
                    </g>
                </g>
            </g>
        </g>
    </g>
</svg>