
<svg width="23px" height="14px" viewBox="0 0 23 14" version="1.1" xmlns="http://www.w3.org/2000/svg" xmlns:xlink="http://www.w3.org/1999/xlink">
    <!-- Generator: Sketch 49 (51002) - http://www.bohemiancoding.com/sketch -->
    <desc>Created with Sketch.</desc>
    <defs></defs>
    <g id="浏览器4-testnet-transaction" stroke="none" stroke-width="1" fill="none" fill-rule="evenodd">
        <g id="transactions" transform="translate(-629.000000, -350.000000)" fill="#198CEE">
            <g transform="translate(100.000000, 198.000000)" id="1">
                <g transform="translate(0.000000, 50.000000)">
                    <g id="Group-2" transform="translate(520.000000, 89.000000)">
                        <path d="M17.2882977,23.0137638 L10,23.0137638 C9.44771525,23.0137638 9,22.5660486 9,22.0137638 L9,17.9862248 C9,17.4339401 9.44771525,16.9862248 10,16.9862248 L17.2882977,16.9862248 L17.2882977,14.3090515 C17.2882977,13.7567668 17.7360129,13.3090515 18.2882977,13.3090515 C18.4373836,13.3090515 18.584583,13.3423863 18.7191234,13.4066163 L30.6395201,19.0974548 C31.1379213,19.3353932 31.3490681,19.9323144 31.1111296,20.4307156 C31.0125268,20.6372554 30.8460599,20.8037224 30.6395201,20.9023251 L18.7191234,26.5931636 C18.2207222,26.831102 17.623801,26.6199553 17.3858625,26.1215541 C17.3216325,25.9870138 17.2882977,25.8398143 17.2882977,25.6907284 L17.2882977,23.0137638 Z" id="Combined-Shape"></path>
                    </g>
                </g>
            </g>
        </g>
    </g>
</svg>